<svg width="8" height="17" viewBox="0 0 8 17" fill="none" xmlns="http://www.w3.org/2000/svg">
<path d="M3.27596 0.103591C2.86464 0.28406 2.7618 0.54656 2.7618 1.37508V2.10515L2.46913 2.21179C0.863366 2.745 -0.0779426 4.09031 0.00906908 5.72273C0.05653 6.55125 0.301745 7.17469 0.792174 7.7325C1.512 8.55281 2.27928 8.93015 3.56073 9.09422C4.42294 9.20086 4.96874 9.42234 5.28514 9.79969C6.02079 10.661 5.3326 11.8505 4.01161 12.0145C3.1494 12.1212 2.39003 11.711 1.98661 10.9071C1.67811 10.3083 1.42499 10.1196 0.974108 10.1278C0.151452 10.1442 -0.244056 11.0302 0.159362 11.9325C0.515319 12.7036 1.44081 13.5567 2.31092 13.893L2.6827 14.0407V14.6477C2.6827 15.6403 2.95165 16.0587 3.62401 16.1325C3.97997 16.1653 4.03534 16.1489 4.31219 15.8782L4.62069 15.5911L4.64442 14.8118L4.67606 14.0407L5.00038 13.9341C6.27391 13.5403 7.28641 12.3919 7.51581 11.0794C7.75311 9.77508 7.18358 8.42976 6.07616 7.69969C5.562 7.35515 4.66815 7.06804 3.90087 6.99422C2.69061 6.88758 1.97079 6.33797 1.97079 5.52586C1.97079 4.97625 2.32674 4.51687 2.9121 4.29539C3.84549 3.95906 4.88963 4.3364 5.30096 5.16492C5.52245 5.62429 5.8784 5.895 6.25018 5.895C6.90672 5.895 7.27059 5.49304 7.27059 4.76297C7.27059 4.28719 6.99374 3.78679 6.40047 3.18797C6.03661 2.81883 5.0162 2.20359 4.77098 2.20359C4.68397 2.20359 4.66024 2.03953 4.66024 1.48172C4.66024 0.669607 4.57323 0.448123 4.19354 0.177419C3.89296 -0.0358618 3.62401 -0.052268 3.27596 0.103591Z" fill="#5DA8FF"/>
</svg>
