<svg width="48" height="17" viewBox="0 0 48 17" fill="none" xmlns="http://www.w3.org/2000/svg">
<path d="M3.27596 0.103591C2.86464 0.28406 2.7618 0.54656 2.7618 1.37508V2.10515L2.46913 2.21179C0.863366 2.745 -0.0779426 4.09031 0.00906908 5.72273C0.05653 6.55125 0.301745 7.17469 0.792174 7.7325C1.512 8.55281 2.27928 8.93015 3.56073 9.09422C4.42294 9.20086 4.96874 9.42234 5.28514 9.79969C6.02079 10.661 5.3326 11.8505 4.01161 12.0145C3.1494 12.1212 2.39003 11.711 1.98661 10.9071C1.67811 10.3083 1.42499 10.1196 0.974108 10.1278C0.151452 10.1442 -0.244056 11.0302 0.159362 11.9325C0.515319 12.7036 1.44081 13.5567 2.31092 13.893L2.6827 14.0407V14.6477C2.6827 15.6403 2.95165 16.0587 3.62401 16.1325C3.97997 16.1653 4.03534 16.1489 4.31219 15.8782L4.62069 15.5911L4.64442 14.8118L4.67606 14.0407L5.00038 13.9341C6.27391 13.5403 7.28641 12.3919 7.51581 11.0794C7.75311 9.77508 7.18358 8.42976 6.07616 7.69969C5.562 7.35515 4.66815 7.06804 3.90087 6.99422C2.69061 6.88758 1.97079 6.33797 1.97079 5.52586C1.97079 4.97625 2.32674 4.51687 2.9121 4.29539C3.84549 3.95906 4.88963 4.3364 5.30096 5.16492C5.52245 5.62429 5.8784 5.895 6.25018 5.895C6.90672 5.895 7.27059 5.49304 7.27059 4.76297C7.27059 4.28719 6.99374 3.78679 6.40047 3.18797C6.03661 2.81883 5.0162 2.20359 4.77098 2.20359C4.68397 2.20359 4.66024 2.03953 4.66024 1.48172C4.66024 0.669607 4.57323 0.448123 4.19354 0.177419C3.89296 -0.0358618 3.62401 -0.052268 3.27596 0.103591Z" fill="white"/>
<path d="M37.4794 1.81806C36.9415 2.1872 36.7675 2.99931 37.1156 3.51611C37.606 4.27079 38.6422 4.27079 39.1326 3.51611C39.3858 3.12236 39.3541 2.39228 39.0615 2.07236C38.6264 1.58837 37.9619 1.48173 37.4794 1.81806Z" fill="white"/>
<path d="M18.685 1.9165C18.5426 1.98212 18.3528 2.15439 18.2657 2.30204C18.1155 2.56454 18.1075 2.704 18.1075 7.80634V13.0317L18.3686 13.327C18.8353 13.8602 19.6184 13.7536 19.9427 13.1138C20.0772 12.8431 20.0851 12.5559 20.0693 7.65868C20.0455 1.90009 20.0772 2.21181 19.4918 1.9247C19.1754 1.76884 19.0172 1.76064 18.685 1.9165Z" fill="white"/>
<path d="M11.6607 5.0747C9.59613 5.54228 8.18021 7.49462 8.3305 9.63564C8.45706 11.4731 9.55657 12.9579 11.2019 13.5321C12.246 13.8931 13.6778 13.729 14.4688 13.163L14.7377 12.9743L15.0225 13.286C15.3784 13.6798 15.766 13.77 16.1853 13.5567C16.7627 13.2614 16.7627 13.2778 16.7627 9.33212V5.83759L16.5808 5.55868C16.3672 5.23056 15.8768 5.01728 15.5367 5.10751C15.4101 5.14032 15.1728 5.31259 15.0146 5.48486L14.7219 5.79657L14.4371 5.5915C13.7806 5.13212 12.4675 4.88603 11.6607 5.0747ZM13.2743 7.26493C13.7015 7.42079 14.2631 7.94579 14.4925 8.39696C14.7377 8.87275 14.7377 9.89814 14.4846 10.3821C14.097 11.145 13.48 11.5634 12.6653 11.6208C11.9534 11.67 11.5262 11.5224 11.0279 11.0466C9.6515 9.75048 10.308 7.429 12.1353 7.12548C12.5229 7.05986 12.8156 7.09267 13.2743 7.26493Z" fill="white"/>
<path d="M24.3169 5.10751C22.7744 5.50946 21.6037 6.74813 21.232 8.36415C20.8997 9.84891 21.319 11.3747 22.371 12.4657C23.2253 13.3516 24.0796 13.7126 25.3057 13.7126C26.0967 13.7126 26.6821 13.5485 27.2832 13.1548L27.5522 12.9743L27.8369 13.286C28.1771 13.6552 28.5568 13.7536 28.9681 13.5813C29.5218 13.3352 29.506 13.4665 29.506 9.39774C29.5139 6.78915 29.4902 5.69813 29.419 5.56688C29.2924 5.32899 28.8732 5.07469 28.5884 5.07469C28.3036 5.07469 27.8923 5.32079 27.7183 5.59969L27.5838 5.80477L27.1013 5.52587C26.2154 5.02548 25.2266 4.86962 24.3169 5.10751ZM26.2707 7.33055C26.9589 7.69969 27.5205 8.58563 27.5205 9.33212C27.5205 10.2099 26.9431 11.1204 26.1679 11.4731C25.8357 11.6208 25.6458 11.6454 25.1949 11.6208C24.3169 11.5716 23.7157 11.1696 23.3123 10.3821C23.0671 9.91454 23.0592 8.88094 23.2886 8.39696C23.4705 8.01141 23.9372 7.51102 24.2853 7.32235C24.8153 7.04344 25.7091 7.04344 26.2707 7.33055Z" fill="white"/>
<path d="M34.1177 5.14032C33.8962 5.22235 33.5323 5.41102 33.303 5.55868C32.9074 5.82118 32.8916 5.82938 32.7809 5.68172C32.7176 5.59149 32.6622 5.50126 32.6622 5.46024C32.6622 5.31258 32.1243 5.07469 31.8079 5.07469C31.5153 5.07469 31.4124 5.12391 31.1909 5.3536L30.922 5.63251V9.36493V13.0891L31.1198 13.3106C31.4599 13.688 31.8633 13.7782 32.2984 13.5649C32.7651 13.3352 32.773 13.2696 32.8283 11.022C32.8758 8.63485 32.9312 8.39696 33.5323 7.77352C33.9437 7.34696 34.4737 7.12547 35.1065 7.12547C35.5653 7.12547 35.8105 6.99422 36.0478 6.63329C36.1981 6.4036 36.2297 6.27235 36.1981 5.99344C36.1111 5.14852 35.1777 4.76297 34.1177 5.14032Z" fill="white"/>
<path d="M37.8355 5.12391C37.44 5.26336 37.266 5.50945 37.2027 6.05086C37.1078 6.80555 37.2106 12.9743 37.3213 13.1794C37.5428 13.6141 38.2389 13.8192 38.6581 13.5731C38.761 13.5157 38.9113 13.3598 38.9983 13.2286C39.1407 12.9989 39.1486 12.8102 39.1486 9.39774C39.1486 5.6325 39.1407 5.53406 38.8005 5.24695C38.587 5.05828 38.1598 5.00906 37.8355 5.12391Z" fill="white"/>
<path d="M40.8333 5.24696C40.5407 5.44383 40.3034 5.97704 40.3746 6.31337C40.422 6.51844 40.9915 7.25673 42.36 8.88915L42.7792 9.38954L41.7035 10.6938C41.1181 11.4157 40.5802 12.1212 40.5169 12.2606C40.1531 13.0235 40.9204 13.8766 41.743 13.6224C41.9803 13.5485 42.2255 13.3024 43.0165 12.3345C43.5544 11.6782 44.0211 11.145 44.0528 11.145C44.0765 11.145 44.5432 11.6618 45.0732 12.3016C45.7297 13.0891 46.1332 13.4993 46.323 13.5813C47.114 13.9177 47.9208 13.0891 47.5886 12.2852C47.5253 12.1294 46.9795 11.4239 46.3863 10.7102C45.793 9.98837 45.3263 9.36493 45.35 9.31571C45.3659 9.25829 45.6981 8.84813 46.0778 8.39696C47.7468 6.4036 47.8497 6.20673 47.5728 5.64891C47.383 5.26337 47.0824 5.07469 46.6631 5.07469C46.1806 5.07469 46.1094 5.13212 45.002 6.54305C44.5037 7.17469 44.0765 7.69149 44.0528 7.69149C44.029 7.69969 43.6019 7.1993 43.1036 6.58407C42.6052 5.96883 42.0911 5.37821 41.9724 5.27157C41.6876 5.01727 41.1893 5.00907 40.8333 5.24696Z" fill="white"/>
</svg>
